PathFileType	4	(X/Y/Z)	Run_400 02
DataRate	CameraRate	NumFrames	NumMarkers	Units	OrigDataRate	OrigDataStartFrame	OrigNumFrames
100	100	4	42	mm	100	54	128
Frame#	Time	LASI			RASI			LPSI			RPSI			RTH1			RTH2			RTH3			LTH1			LTH2			LTH3			RTB1			RTB2			RTB3			LTB1			LTB2			LTB3			RCAL			RTOE			RMT5			LCAL			LTOE			LMT5			LACR			RACR			CLAV			C7			RUA1			RUA2			RUA3			RLEL			RMEL			LUA1			LUA2			LUA3			LLEL			LMEL			RFAsuperior			RFAradius			RFAulna			LFAsuperior			LFAradius			LFAulna			
		X1	Y1	Z1	X2	Y2	Z2	X3	Y3	Z3	X4	Y4	Z4	X5	Y5	Z5	X6	Y6	Z6	X7	Y7	Z7	X8	Y8	Z8	X9	Y9	Z9	X10	Y10	Z10	X11	Y11	Z11	X12	Y12	Z12	X13	Y13	Z13	X14	Y14	Z14	X15	Y15	Z15	X16	Y16	Z16	X17	Y17	Z17	X18	Y18	Z18	X19	Y19	Z19	X20	Y20	Z20	X21	Y21	Z21	X22	Y22	Z22	X23	Y23	Z23	X24	Y24	Z24	X25	Y25	Z25	X26	Y26	Z26	X27	Y27	Z27	X28	Y28	Z28	X29	Y29	Z29	X30	Y30	Z30	X31	Y31	Z31	X32	Y32	Z32	X33	Y33	Z33	X34	Y34	Z34	X35	Y35	Z35	X36	Y36	Z36	X37	Y37	Z37	X38	Y38	Z38	X39	Y39	Z39	X40	Y40	Z40	X41	Y41	Z41	X42	Y42	Z42	

47	1	762.1410100000001	993.88152	-448.227041	758.5405060000001	974.809034	-174.458264	591.102975	1013.063421	-363.566175	590.029987	1001.830638	-263.266053	696.36467	777.457164	-153.648914	825.067615	707.804076	-144.180429	813.540081	584.1041	-177.527294	692.348738	801.8938920000001	-490.072519	761.581507	672.937303	-456.128933	707.4254079999999	554.695411	-437.128637	817.013022	400.351617	-241.548169	749.860662	401.703167	-177.411323	660.02907	337.321707	-238.985687	669.536278	325.389738	-347.501237	591.108782	271.351083	-412.218498	576.1111560000001	199.203921	-338.868246	493.870037	379.958196	-256.404216	560.229961	161.785008	-248.422354	522.725396	206.436315	-171.12806	398.683675	116.454079	-337.044677	624.041758	67.20305999999999	-312.800142	571.634496	53.561344	-405.700654	775.2075129999999	1434.870885	-498.210575	748.1342	1481.661221	-166.905079	810.573525	1395.926298	-291.550955	698.725335	1485.253496	-335.667101	678.6466840000001	1419.262648	-85.375834	600.588181	1359.57487	-116.819338	613.9467509999999	1312.398269	-56.630306	556.576071	1220.947568	-24.439662	540.1080480000001	1208.340766	-101.660793	743.149761	1340.16732	-575.958113	686.852794	1258.074839	-550.6310590000001	702.879011	1200.56742	-606.549201	715.303184	1116.332439	-635.294588	680.292826	1100.606927	-565.415172	634.176433	1142.070622	-14.294334	749.458674	1036.228095	-47.835842	688.069916	998.20838	-37.70676	819.832748	1092.370885	-606.1820729999999	947.287365	1062.678698	-508.316062	937.236035	1001.410247	-544.82193	
48	1.01	763.396812	996.024611	-448.316612	759.610485	981.231312	-175.515888	591.871942	1017.675504	-363.56303	590.729297	1005.682069	-263.195613	703.282005	784.408351	-149.684614	834.327869	720.042819	-143.516217	827.040089	595.82443	-176.160392	683.8495809999999	804.6138539999999	-488.564222	744.726543	672.561381	-454.528054	681.7806399999999	557.267689	-435.857044	841.9165860000001	407.394172	-239.729194	774.866748	403.072633	-178.147668	691.642812	329.594534	-239.266685	636.379094	329.07503	-348.490852	556.066042	276.002451	-412.04092	539.4351339999999	203.73369	-338.892099	521.059153	354.53122	-256.893709	612.955205	147.003309	-253.842512	570.16426	183.993011	-174.175223	361.974676	125.327046	-338.783206	583.444164	66.83162	-312.462512	530.764869	53.111796	-405.460755	778.4060449999999	1440.849942	-496.423054	745.425525	1486.818325	-166.228202	810.4936760000001	1401.350032	-289.627748	698.736456	1489.934114	-335.665129	672.790473	1426.236481	-86.37935400000001	594.996032	1368.746718	-120.729504	605.0983189999999	1320.758554	-59.796803	544.001547	1230.877241	-29.999103	530.936287	1219.07673	-108.256312	750.20968	1345.296578	-574.297847	694.589368	1262.505674	-548.998784	711.522382	1203.865828	-601.952305	726.718159	1119.548112	-630.20664	693.049985	1103.71668	-559.880987	619.623077	1150.25959	-18.029059	732.959776	1041.701836	-48.837056	670.839074	1005.139237	-41.555413	832.7975290000001	1101.398572	-600.072374	959.788137	1079.736186	-499.349063	953.299489	1017.224135	-534.252752	
49	1.02	765.510039	998.302535	-448.166449	761.575733	988.69187	-177.112525	593.562531	1022.583793	-363.249963	591.930931	1010.796392	-262.587895	710.248451	791.887838	-145.655481	842.849436	732.4928200000001	-143.018825	838.642123	607.276339	-174.588868	676.586285	808.490292	-487.146693	728.0247859999999	673.848669	-453.648328	656.956907	562.364872	-435.410394	865.259816	414.964308	-238.708779	798.8066669999999	403.921158	-178.866324	723.793052	321.81105	-240.128642	603.8462950000001	334.449647	-350.435567	521.3721849999999	283.590166	-412.572842	504.488723	210.788689	-340.066027	550.82673	327.588362	-258.086983	667.917242	134.319152	-259.851035	620.242371	162.976808	-177.337587	327.225908	137.043731	-340.775696	543.645933	66.29857	-312.453196	491.112686	53.682966	-405.696908	781.674618	1447.607386	-494.421144	742.757249	1492.459252	-165.464562	810.654701	1407.460565	-287.567392	699.0181669999999	1495.02548	-335.498486	666.81717	1434.112394	-87.534631	589.605174	1378.279712	-124.389187	596.594384	1329.767784	-62.76878	532.064478	1241.568246	-35.655775	522.567877	1230.554057	-114.914791	755.516147	1351.550113	-572.264303	701.151245	1267.811779	-547.3652959999999	719.71749	1208.387532	-597.7560549999999	736.812258	1124.161456	-625.2949	703.923641	1108.724621	-554.388457	606.3174780000001	1160.050807	-21.972067	717.687799	1049.104822	-50.047108	655.14703	1013.776167	-44.803964	843.867614	1111.594729	-593.93803	969.918858	1098.185528	-490.625021	966.814222	1034.501095	-523.48537	
50	1.03	768.408942	1000.779857	-447.643864	763.8280999999999	996.573943	-178.473068	596.146003	1027.627412	-362.652564	593.850598	1017.149449	-261.523706	717.306596	800.073754	-141.789428	850.392569	744.714421	-142.436211	848.230764	618.303133	-172.922084	670.534355	813.360079	-485.910658	712.458509	677.116002	-453.23297	634.4716519999999	569.988516	-436.305577	886.943076	422.664008	-238.818247	821.956281	403.968396	-179.72927	756.399185	314.059318	-241.276377	572.455739	341.822223	-353.382056	488.314596	293.748004	-414.560374	472.195492	220.113238	-342.880599	583.39404	299.620108	-259.646606	724.004529	123.108987	-264.986098	672.669114	144.016108	-180.33792	294.935403	151.252315	-342.705315	504.926565	65.526507	-312.910016	452.980103	55.318089	-406.311408	784.917729	1454.764262	-492.324529	740.344876	1498.286631	-164.687624	811.003527	1413.848677	-285.316384	699.59551	1500.255515	-335.307558	661.186572	1442.539619	-88.83514	584.563048	1387.993944	-127.853904	588.730024	1339.134859	-65.63823600000001	521.082362	1252.593657	-41.322943	515.150761	1242.386168	-121.625858	759.687673	1358.443214	-570.1229049999999	706.515072	1273.714151	-545.866208	727.523293	1213.789216	-594.40307	746.030335	1129.69693	-620.865538	712.975221	1114.940154	-549.5355479999999	594.08668	1170.506545	-25.928517	703.795736	1057.685082	-51.430373	640.922576	1023.417225	-47.610003	853.1677	1122.224442	-587.4245560000001	977.797744	1117.036922	-482.134618	977.966909	1052.379381	-512.749589	
